
<global>
amp_veltrack=0
ampeg_release=3.25
</global>

<group>
group_label=PP
lpc_hicc1=42
lpc_locc1=0

<region>
hikey=A3
hivel=127
lokey=G#3
lovel=1
lpc=MZSFQ+F1LMRGcwVE8GI1w9LWYkN5kSrDQTsZwdDSeEIncRzCq262wawcakGj9bPBeP4LQn6be0Gzg53BaNdOQXPeBsFMgD/BTmuTQCvhpb2gYz1B+L6fQHNrAcKwsZhB
lpc_rms=-41.89
offset=13139
pitch_keycenter=G#3
sample=Basstrombone_eighth_PP_G#4.opus
tune=-19
</region>

<region>
hikey=A2
hivel=127
lokey=G#2
lovel=1
lpc=HZpFQ+hj9MOc0qNDM/41wmOHpUKN0XDCETVmwfXupkDdEAO/xPBpwfMTnkBB077AjXAqQaJWoEBsojnB1slRQegEoUB0WEzB0VptQIjx00Dq/iDBai6DQKQRGMHPEf5A
lpc_rms=-46.54
offset=11799
pitch_keycenter=G#2
sample=Basstrombone_eighth_PP_G#3.opus
tune=-23
</region>

<region>
hikey=A1
hivel=127
lokey=G#1
lovel=1
lpc=MwvoQiMwh8ODwCNDFaBRwcmZIEIrngTCx7TbvpSUEMAgdnxAw8ydwKfissB/7UC+6UOwQFmJSUBldlLAy0JnQNAipb9Q/gbAStz3P84ByD5rs0k/b1w/wPWNIcC8ulZA
lpc_rms=-52.09
offset=22561
pitch_keycenter=G#1
sample=Basstrombone_eighth_PP_G#2.opus
tune=-15
</region>

<region>
hikey=G3
hivel=127
lokey=F#3
lovel=1
lpc=CO4TQx36tMM8KH5D2Z+nwoB99EIuE2/C1NbDwbcoPEFU4ozBOvY4wLCTjkGERnbBhZWOQc9+OEFFEMrBF0lEQVwKqsD5qxHBj4kBQfEKW0GACQnBmc6EQG0qjcHN6ytB
lpc_rms=-48.08
offset=10765
pitch_keycenter=F#3
sample=Basstrombone_eighth_PP_F#4.opus
tune=-37
</region>

<region>
hikey=G2
hivel=127
lokey=F#2
lovel=1
lpc=y5jnQtFGhsOLfhxDfzlIwaI3S0J4wurBGQ7ewNyou8CzQ+y/wZEawMBFJb8uEb2/EaftQInoZkD3AtjANwDhQGQG6r+DNtbA4y9mP6Iy8kDz/uC/kaIVP373E8E4asFA
lpc_rms=-52.17
offset=9895
pitch_keycenter=F#2
sample=Basstrombone_eighth_PP_F#3.opus
tune=-38
</region>

<region>
hikey=G1
hivel=127
lokey=F#1
lovel=1
lpc=6jeWQrssI8NhR7VC2R4qwfku3kEa/6jB32XfQM1kncCA99JAKIsSwQGAnL/DR4M/ASu/v/kjdEC2pTU/ezcDP6id9T+TBsa/s3SHwPFWNUDJogpAC3IZwNID87++TwVA
lpc_rms=-55.83
offset=11034
pitch_keycenter=F#1
sample=Basstrombone_eighth_PP_F#2.opus
tune=+2
</region>

<region>
hikey=F3
hivel=127
lokey=E3
lovel=1
lpc=IEZCQw1W7MODLZlDxap5wgB2BkNjaY3C0zYQwuhNPEEoO97AEFy9wZ0/gUEKoQHBWW+PQa59vkGsHIvBWpIsPCJoHD/gCZDB6ZM3wM2sn0HRlyfAUI3AwLplikCt38u/
lpc_rms=-46.50
offset=11789
pitch_keycenter=E3
sample=Basstrombone_eighth_PP_E4.opus
tune=-17
</region>

<region>
hikey=F2
hivel=127
lokey=E2
lovel=1
lpc=mmHFQi/Vf8NT30lDEdhXwgB8OUKp+yPCb7e/QL70oL67lD/AQlOpwMcmI8C0B0ZB3xXnPYk3mcBb06xArFx6QHn4ZsHzuadAtK7TP8f35r/Bc1RAyGV2QApaIMGg9pJA
lpc_rms=-51.13
offset=12235
pitch_keycenter=E2
sample=Basstrombone_eighth_PP_E3.opus
tune=-14
</region>

<region>
hikey=F1
hivel=127
lokey=A#0
lovel=1
lpc=FsSsQi1nTMO5X/9CIJfvwP2Y4EGVogfC5UN4QJZCU0BHhvO9Gwu4wMF4tcAUntVAlDKIPqGrn0CQieM+I3JtwCIROsAcRY9ACSxgwDNgAEBqfNY9K1SGvmXAM7/bfg4/
lpc_rms=-54.23
offset=14391
pitch_keycenter=E1
sample=Basstrombone_eighth_PP_E2.opus
tune=-27
</region>

<region>
hikey=D#3
hivel=127
lokey=D3
lovel=1
lpc=HJULQ+JNqcPEyl9DKj4+wuAwskILM1jC7EOUwUOgK0FDv73A5/jHwDIL+EBVMBDBjWERQR9XoEAW+1LBPYg0QReDjEC8Ay/BIwSrQJYEdEDvueXAlNLwv+DT/z+ksLw/
lpc_rms=-49.30
offset=10668
pitch_keycenter=D3
sample=Basstrombone_eighth_PP_D4.opus
tune=-25
</region>

<region>
hikey=D#2
hivel=127
lokey=D2
lovel=1
lpc=HbPnQvTlg8NdsBRDSd3cwAm4K0K5dsvB0cCpwMIxF8GTv5pArDlGwMmj/L+qu/G/HasVQBX8MUC7PqY/79gyQA+bz76sanPAUeoJPMXxgkChzwDAn2VPwCLLUT4VZOU/
lpc_rms=-51.86
offset=12123
pitch_keycenter=D2
sample=Basstrombone_eighth_PP_D3.opus
tune=+7
</region>

<region>
hikey=C#3
hivel=127
lokey=C3
lovel=1
lpc=5gAnQ4A40MP7HY9DSNxKwhLqwEKih5PCYrWrwRbVdEGNSrHAmvPKwCnw5UAXdwrBktc0QakkRkGxhpTBWtpkQX7Yg7+N0V/BC7Inv7qSXUFrBZjAEeKDP7maAsHHV7lA
lpc_rms=-47.53
offset=9543
pitch_keycenter=C3
sample=Basstrombone_eighth_PP_C4.opus
tune=-7
</region>

<region>
hikey=C#2
hivel=127
lokey=C2
lovel=1
lpc=Eg7aQh4KecNRfBBD8NWLwHH9/0GGC9rBVOmewG5w87+a9Y1AqyoRwEmSjMB8vG0/QG8AQAoEXUC/iMG/rE32PkY3r79WnJI/zGA7PuYPCkCBM42/1zbwP4/qMMEOMO1A
lpc_rms=-52.87
offset=12259
pitch_keycenter=C2
sample=Basstrombone_eighth_PP_C3.opus
tune=+5
</region>

<region>
hikey=D#5
hivel=127
lokey=A#3
lovel=1
lpc=8UcYQ6lat8O/gYNDH5LhwsOEGkMWRbHCHWN2wbbTA0J21F/BZy86wYd89ECDtM/B6PeaQeNki0H+AIXBSFDFQQs7U8HFbI7BxcsjvnDHRUF5L0pAsUVqv89ZkMCMUKs/
lpc_rms=-46.88
offset=11484
pitch_keycenter=A#3
sample=Basstrombone_eighth_PP_A#4.opus
tune=+5
</region>

<region>
hikey=B2
hivel=127
lokey=A#2
lovel=1
lpc=jn7BQk35XcNpgglDWtDZwdOwSELzoN7B3kI7wf1xyUCOlvA8Mo/rwDQBGEE8DyPBsYB6QPZeCkF6JRzBp9VFP5dGB0E5Wg3BcEwWP/CRGUHhf8XA3neRP4QV9MBNf7RA
lpc_rms=-53.18
offset=10805
pitch_keycenter=A#2
sample=Basstrombone_eighth_PP_A#3.opus
tune=-1
</region>

<region>
hikey=B1
hivel=127
lokey=A#1
lovel=1
lpc=hXAHQ+7socPoBFNDoMHzwZOoYEKHhzfC7hHIv/S128CZympBt5ELwZJXo8BvfiHAcsV7QGObFUGQHJbAaOwoQKAj977HVQnAV3vJwEhi+0DybJlAelzZwPdFzsCl1dFA
lpc_rms=-49.49
offset=13911
pitch_keycenter=A#1
sample=Basstrombone_eighth_PP_A#2.opus
tune=+20
</region>
</group>

<group>
group_label=MF
lpc_hicc1=84
lpc_locc1=43

<region>
hikey=A3
hivel=127
lokey=G#3
lovel=1
lpc=CH00Qzl3BcR+HAlEMmCawx/SmUORR5XDgnoPQzoisMLqFUtC+favQKv+IUF2n9rAowcGwqxjDkK+9+PBdVSxQR1uEcHx0mtB9j0lwadSKsGw6bBBB+DKwWNIhUGbP3vA
lpc_rms=-39.83
offset=11478
pitch_keycenter=G#3
sample=Basstrombone_eighth_MF_G#4.opus
tune=-12
</region>

<region>
hikey=A2
hivel=127
lokey=G#2
lovel=1
lpc=kwEsQ42pCsTf7RtE+UKOw3jMGEP462HDD8wOQ74JOMLM5jRCd/wBwkOdCUH+cFxBSEkYwpNlFkJcR/PB1bD4QeF0iMF8dzRBSqkDwmKZBEJXYT3Akd7WwOQaNMBhOUVA
lpc_rms=-40.45
offset=12582
pitch_keycenter=G#2
sample=Basstrombone_eighth_MF_G#3.opus
tune=-14
</region>

<region>
hikey=A1
hivel=127
lokey=G#1
lovel=1
lpc=nIzmQsngt8NAr9RDpBBdw0r+4UJmo/LCUEJWQoX1l0H75KHBqRjpQFhJp7+EtozA0buTQJOiGMCsbzvAq9VOQWB5k8G8vGlB9SuFwMlGp8DiJbJAxqggQAUv38DcY0pA
lpc_rms=-44.37
offset=14306
pitch_keycenter=G#1
sample=Basstrombone_eighth_MF_G#2.opus
tune=-15
</region>

<region>
hikey=G3
hivel=127
lokey=F#3
lovel=1
lpc=ATYVQywv6MNpHANEMWGUww2lV0OqjWzD68ozQ38nGsOgOA9D/9K9whO+lUK67mLCSk47wXxJZELyYwnCn+tpQXDt3cGX4CJCmg0swqzLGkIUVefBvvV5QT49HsBwKdi/
lpc_rms=-40.21
offset=9208
pitch_keycenter=F#3
sample=Basstrombone_eighth_MF_F#4.opus
tune=-22
</region>

<region>
hikey=G2
hivel=127
lokey=F#2
lovel=1
lpc=n+YOQzv07cNGxhBEC5qbw1NTFUO12kXDCcMbQ9ExJ8IlRjFB6lyXwXXFoUAxbqI/BAQ3QF/2CUFWtMHBZsyeQTrSBMGP3I9BvCMTwq1WHUI/JeDBhb5XQU7yPsC9cs69
lpc_rms=-41.64
offset=12562
pitch_keycenter=F#2
sample=Basstrombone_eighth_MF_F#3.opus
tune=-11
</region>

<region>
hikey=G1
hivel=127
lokey=F#1
lovel=1
lpc=P6OxQmUiesNQ321DtfLEwoQdkEJbmaLC/GzvQfNNS0HFVzjBM4UOwdMoeUFGPobBVK2JQXz7P7+PVUbBYEUuQfM8/cAqio5AgJzCv8juhj7HKE4/I6hIQAp32cDCpFFA
lpc_rms=-48.86
offset=10161
pitch_keycenter=F#1
sample=Basstrombone_eighth_MF_F#2.opus
tune=+1
</region>

<region>
hikey=F3
hivel=127
lokey=E3
lovel=1
lpc=r+gBQ3imwsMqDMhDSihFwwbcNUMzv0nD2ny9QjG6YsLULjhCfL1MQLqYlz/1r23AHxoKwp1RD0KVA2jB0ixwQcKQUcEBmyJBSsmUwU9eMkFRDGpBKY3IwUr4SEFpT7O/
lpc_rms=-41.50
offset=10290
pitch_keycenter=E3
sample=Basstrombone_eighth_MF_E4.opus
tune=-9
</region>

<region>
hikey=F2
hivel=127
lokey=E2
lovel=1
lpc=5xkNQwNH3cNMBfVDdYVpwzbK70L0JgnD0g+TQtYwvMGpT9ZBtEeLwVnVV0A4ognAGPEoQOAMtL1HmcnAfv6FQZyHO8HWaHnAJUNEQENDdEBScUTAtaWYQLVf28AQ4UNA
lpc_rms=-43.43
offset=10878
pitch_keycenter=E2
sample=Basstrombone_eighth_MF_E3.opus
tune=-2
</region>

<region>
hikey=F1
hivel=127
lokey=A#0
lovel=1
lpc=ZdG4Qv/NjMPygZdD+1cGw1p6VEISUF7CbftGQfyCukF2/WHBUw6kwH+siUH+D3HBIXilPsRLb0FnfKnBUyp8QcMu2r/bEgnBoBC6QAjMBMCX+o1ABBjRv6yVWMApOwtA
lpc_rms=-46.48
offset=10653
pitch_keycenter=E1
sample=Basstrombone_eighth_MF_E2.opus
tune=-4
</region>

<region>
hikey=D#3
hivel=127
lokey=D3
lovel=1
lpc=1OwlQzivB8Ti9BpE6nmPwzXiHUNMOnDD5tMUQ5zZHcKoyk5CwjdAwiAqB0KKzBTCisF5QGze30HBNLbBiWvKQX9y3cGd809B/iGHwckF1kGbRB/BwLPuwLvTsUA6/CW/
lpc_rms=-39.57
offset=10520
pitch_keycenter=D3
sample=Basstrombone_eighth_MF_D4.opus
tune=-5
</region>

<region>
hikey=D#2
hivel=127
lokey=D2
lovel=1
lpc=wLLeQsutwMP25ABE2A2kw0mF7kJYz47CesFkQhrkScE/B0HBZhD8QBVvFsB8J4q+ibqEQBxLAsASiQHB4ZRhQYY4wcD9sJe/DgaAwJ6uAEHaLD/AL+6DwF6owEBuZh/A
lpc_rms=-43.91
offset=10901
pitch_keycenter=D2
sample=Basstrombone_eighth_MF_D3.opus
tune=+6
</region>

<region>
hikey=C#3
hivel=127
lokey=C3
lovel=1
lpc=Nu9LQ9KpKcQYi0REJ66ow2Ix90J7+WjD7J0EQ8i0akHby7dBsDEqwuAokkGVQvTBE9xMQMvmLEKhr6PBgLREwVQLbkDLbt4/f5UtwK9KC0G1Ay3B1//dQZ1EEMJ6EmxB
lpc_rms=-39.86
offset=10433
pitch_keycenter=C3
sample=Basstrombone_eighth_MF_C4.opus
tune=+1
</region>

<region>
hikey=C#2
hivel=127
lokey=C2
lovel=1
lpc=BCcVQ1fr+sMlERpEB26ewwfKzELD5u/CT3CRQojJZUHO782/+HLDweowVUF4jZDBAlrpQT8aOcHQ6lnByiZ/QXW2IMBaby++/8jqwHL5gkDKYqRALG4bwKiFj8DY9kJA
lpc_rms=-42.94
offset=8731
pitch_keycenter=C2
sample=Basstrombone_eighth_MF_C3.opus
tune=+15
</region>

<region>
hikey=D#5
hivel=127
lokey=A#3
lovel=1
lpc=90ElQ0+Q5cP1q9FDVEBHwxurY0PpX1jDayeUQhnn7cF+zExBFCqoQPZNKUG+oZfBnnwPQdBj6UBIKKvAJbyIQdVXSMIO/OpB4MqQQIMbk0D0njRBKOIOwoHDi0HJoNs7
lpc_rms=-41.66
offset=9095
pitch_keycenter=A#3
sample=Basstrombone_eighth_MF_A#4.opus
tune=-5
</region>

<region>
hikey=B2
hivel=127
lokey=A#2
lovel=1
lpc=cCQNQ+Mp2cOFX+dDCORbw6P0H0NP8DHDklCLQnDhzsFmUzFCMZ+SwaOtlT4lgZ5AMX2LwXYGu0Ej/cHBFohpQVF1xj+DVzHApmQiwR+pjkFd/gfB7LizwCI6+0BMWCHA
lpc_rms=-43.29
offset=12278
pitch_keycenter=A#2
sample=Basstrombone_eighth_MF_A#3.opus
tune=-7
</region>

<region>
hikey=B1
hivel=127
lokey=A#1
lovel=1
lpc=ii/IQqGck8Na7pJDE2jrwulSo0KnQ83CEHoWQgVQ0MBGzMZBQ7z2wWZCxkGlb32/vvyIwTZUNkF6mnzBjNfSQU1YlMESmSxBM03twP2ZOkBU0ke/KRGpwLB1BUGAJEnA
lpc_rms=-45.83
offset=14316
pitch_keycenter=A#1
sample=Basstrombone_eighth_MF_A#2.opus
tune=+5
</region>
</group>

<group>
group_label=FF
lpc_hicc1=127
lpc_locc1=85

<region>
hikey=A3
hivel=127
lokey=G#3
lovel=1
lpc=MViWQTkyccIlGbxCWknUwmCr0kLVjcHCpy6oQm+PjsLILHNCerlSwhzoMkJxBg3C7mPGQWM0c8G8bPdAsGIhwF7fjDyzdqw/AJZmwN+fjUBm5QfAlMQFPyEtSb6wTBE8
lpc_rms=-31.96
offset=932
pitch_keycenter=G#3
sample=Basstrombone_eighth_FF_G#4.opus
tune=-1
</region>

<region>
hikey=A2
hivel=127
lokey=G#2
lovel=1
lpc=r64RQi8C/sL0x0pDtBVUw9EoM0MGNAnD6d/IQlM9kMIug0xCULkLwmzIr0Gp00LB8FqoQNtpbL+exArA5fCZQAIrm8DF6cM/yE1XQBeV1cA2u8RAOAANwBWOTb/JuzI/
lpc_rms=-34.71
offset=1741
pitch_keycenter=G#2
sample=Basstrombone_eighth_FF_G#3.opus
tune=+3
</region>

<region>
hikey=A1
hivel=127
lokey=G#1
lovel=1
lpc=sTMPQQ83ssGYBtFBMeu8wWyxo0GrXIHBr/4+QeMHCMHZ0sVAh1SOwJy1RUDZbei/Vf75PuniaT5AYRC/JUeMP+r3pL9dsq0/RM6av6VijD9AHFu/T9yePkU2iz0SH6E8
lpc_rms=-34.89
offset=2356
pitch_keycenter=G#1
sample=Basstrombone_eighth_FF_G#2.opus
tune=-7
</region>

<region>
hikey=G3
hivel=127
lokey=F#3
lovel=1
lpc=gVeSQX0tasKLi7VCWgHJwgN/v0JD+6TCigODQjiASMJplh5CXEAFwkZy6EGBG9LBaWLGQTdsuMFYDaJB0OVwweAoBkE0HF/AVoSZvcvTXEBXZY3AnBtUQOkGCMCJ0V0/
lpc_rms=-32.94
offset=847
pitch_keycenter=F#3
sample=Basstrombone_eighth_FF_F#4.opus
tune=-1
</region>

<region>
hikey=G2
hivel=127
lokey=F#2
lovel=1
lpc=TYhOQa29E8Kv00tCizBRwnLkREJpQizC9kkPQqvY78Ep3sxBegiswbzsjEEIDVfB6w0UQePYrsCyeLo/lQHpP9XQQMBmZiZAAzrcvzjZuz/87ca/gsPgP7K2sL/JqBE/
lpc_rms=-35.55
offset=1227
pitch_keycenter=F#2
sample=Basstrombone_eighth_FF_F#3.opus
tune=-8
</region>

<region>
hikey=G1
hivel=127
lokey=F#1
lovel=1
lpc=5es8Qcxz/8E6bSBCECITwn87/kFZBtLBXvOkQWveesFawT9BCdwSwe6s2UC2J5PAL+cqQI87fb9P3wS/LdnuPzvaLsBXxUlA40w7wMNqEEBwlcK/azWKP8//Jb+Eg24+
lpc_rms=-36.63
offset=1688
pitch_keycenter=F#1
sample=Basstrombone_eighth_FF_F#2.opus
tune=+14
</region>

<region>
hikey=F3
hivel=127
lokey=E3
lovel=1
lpc=LH7XQU77t8KbSxZDGZgpwx/NHUMEGgHDBYa/QlgrhML+NSlCxbPDwaayTEGQauLAEJHhQG229MAT4W9AFKorQPa6AcG2py5B8ogawaGh00DeM4PAfHQoQN9+07+SoRM/
lpc_rms=-32.17
offset=960
pitch_keycenter=E3
sample=Basstrombone_eighth_FF_E4.opus
tune=-4
</region>

<region>
hikey=F2
hivel=127
lokey=E2
lovel=1
lpc=n2yWQQS+bsKo77NCtza9ws6yqkL0io3C8qxcQja0J8IIlQJCsHzRwWmjpEGUonDBb2ocQYnmm8BO8OK80IyTQERz28CE6sxAl72awJfYgEBRM3DA99BRQCEP/r96ERc/
lpc_rms=-36.60
offset=1299
pitch_keycenter=E2
sample=Basstrombone_eighth_FF_E3.opus
tune=+1
</region>

<region>
hikey=F1
hivel=127
lokey=A#0
lovel=1
lpc=LLuqQK7eJMFmrQxBqTTVwPzDrUDb72nAOWQYQND7q7+QBxY/bTisvX5PpL74gi4/sqNKv+CFED+Dro2+nOgQPmCNAz67dTm+QwEOPqipur3xPi8+XEUOvh0jfz2lp748
lpc_rms=-38.10
offset=1909
pitch_keycenter=E1
sample=Basstrombone_eighth_FF_E2.opus
tune=+15
</region>

<region>
hikey=D#3
hivel=127
lokey=D3
lovel=1
lpc=N6LPQchqscLVJQ9DARQgw1A/GUMA8AbD3UnbQuFopMIkFWZCHPEawri9zEFCd37B3XUPQcZAn8Bo0U0/K7eEQM66vcA5e6lA3xKawFYqcUBW/wzAtGakP8QyRb+Nfns+
lpc_rms=-34.89
offset=4526
pitch_keycenter=D3
sample=Basstrombone_eighth_FF_D4.opus
tune=-1
</region>

<region>
hikey=D#2
hivel=127
lokey=D2
lovel=1
lpc=s+66QMKfQ8FcVTpBjtoUwXFX+kD7KrvA+c+DQNHmMcAqCgdAHp7bv1bigz8ujEW/yrU7PxXjDL8jm8U+3oInvjo1Yz6sLOa+incuPzg2Ub/ZVnE/7I1Av+jI9j5fkiu+
lpc_rms=-36.81
offset=2193
pitch_keycenter=D2
sample=Basstrombone_eighth_FF_D3.opus
tune=+9
</region>

<region>
hikey=C#3
hivel=127
lokey=C3
lovel=1
lpc=8jWtQUMuh8J+4cRCemzIwjIKtEIfB5nC7bt5QvEFQ8L85xBC8WLPwfZIgkFH1+jAg6+3P/u04D+ACX7A0DyhQHC0isCbIydA764+v5JzYb8yGMA/C2X+vgZSwb6NNMQ+
lpc_rms=-34.29
offset=922
pitch_keycenter=C3
sample=Basstrombone_eighth_FF_C4.opus
tune=+15
</region>

<region>
hikey=C#2
hivel=127
lokey=C2
lovel=1
lpc=zgMpQWRF5cENyxRClbgPwvbz/0HCV9bB0FWuQUEmiMGQzkxBuw0jwftVCUEucdvAZh2gQL3jSMAtaZU/3hQEP7mnjr/Lvag/qbKuv11AoD8+FoW/3hl6PzrJTL+tgMU+
lpc_rms=-41.42
offset=2269
pitch_keycenter=C2
sample=Basstrombone_eighth_FF_C3.opus
tune=-15
</region>

<region>
hikey=D#5
hivel=127
lokey=A#3
lovel=1
lpc=yjy2QVELj8ITptVC6XXkwkco1UJnFbDC7kuCQm+gNcL4XvhBTISnwboTUkHpYbvAJrIWwK2fEEEPiV/Bq7iaQUOjvsErJuJBvPT5wWmA+UG3EuLBs4+qQQPzLMGNyCxA
lpc_rms=-31.54
offset=10109
pitch_keycenter=A#3
sample=Basstrombone_eighth_FF_A#4.opus
tune=+16
</region>

<region>
hikey=B2
hivel=127
lokey=A#2
lovel=1
lpc=FPewQaL5lMKNuPRCMu4Ow9nxDkOwkgHDHznXQjYspcKnJ25CQrQiwgTyz0E9y3LBdUX4QJDQO8D1zX2+YrI8QBxOf8D5V1BA1CjlvySchj/dkA3AwdyIQKf5d8Cn1Lk/
lpc_rms=-34.24
offset=5439
pitch_keycenter=A#2
sample=Basstrombone_eighth_FF_A#3.opus
tune=+12
</region>

<region>
hikey=B1
hivel=127
lokey=A#1
lovel=1
lpc=TvILQZHurcHnP8tBB4qzwWeFmkGADoDBpaxIQZqYC8FMBLBAA9xSwL6C6j+5x06/N1FvvURCOj/KmK2/Qm8IQDFnKcAZ5ThAVJ8MwAFesT+vFYS/EB1qP/LNBL+J2Es+
lpc_rms=-35.88
offset=1064
pitch_keycenter=A#1
sample=Basstrombone_eighth_FF_A#2.opus
tune=-4
</region>
</group>